<svg width="171" height="55" viewBox="0 0 171 55" fill="none" xmlns="http://www.w3.org/2000/svg">
<circle cx="27.5" cy="27.5" r="27.5" fill="#7CBBF5"/>
<path d="M35.0938 33.0469V36H24.5117V33.0469H35.0938ZM25.6602 16.0938V36H21.9004V16.0938H25.6602ZM33.7129 24.3105V27.1953H24.5117V24.3105H33.7129ZM35.0527 16.0938V19.0605H24.5117V16.0938H35.0527ZM44.623 26.0469V28.9043H37.1445V26.0469H44.623ZM58.4043 30.832C58.4043 30.4492 58.3451 30.1074 58.2266 29.8066C58.1172 29.4967 57.9121 29.2188 57.6113 28.9727C57.3197 28.7174 56.9049 28.4714 56.3672 28.2344C55.8385 27.9883 55.1549 27.7331 54.3164 27.4688C53.3867 27.1771 52.5208 26.849 51.7188 26.4844C50.9167 26.1198 50.2103 25.696 49.5996 25.2129C48.998 24.7298 48.5286 24.1738 48.1914 23.5449C47.8542 22.9069 47.6855 22.1686 47.6855 21.3301C47.6855 20.5098 47.8587 19.7624 48.2051 19.0879C48.5605 18.4134 49.0618 17.8346 49.709 17.3516C50.3561 16.8594 51.1172 16.4811 51.9922 16.2168C52.8763 15.9525 53.8516 15.8203 54.918 15.8203C56.3945 15.8203 57.6706 16.0892 58.7461 16.627C59.8307 17.1647 60.6693 17.8939 61.2617 18.8145C61.8542 19.735 62.1504 20.7695 62.1504 21.918H58.4043C58.4043 21.2982 58.2721 20.7513 58.0078 20.2773C57.7526 19.8034 57.3607 19.4297 56.832 19.1562C56.3125 18.8828 55.6562 18.7461 54.8633 18.7461C54.0977 18.7461 53.4596 18.86 52.9492 19.0879C52.4479 19.3158 52.0697 19.6257 51.8145 20.0176C51.5684 20.4095 51.4453 20.847 51.4453 21.3301C51.4453 21.6947 51.5319 22.0228 51.7051 22.3145C51.8783 22.597 52.138 22.8659 52.4844 23.1211C52.8307 23.3672 53.2591 23.5996 53.7695 23.8184C54.2891 24.028 54.8906 24.2376 55.5742 24.4473C56.668 24.7754 57.625 25.14 58.4453 25.541C59.2747 25.9421 59.9629 26.3978 60.5098 26.9082C61.0658 27.4186 61.4805 27.9928 61.7539 28.6309C62.0365 29.2689 62.1777 29.9935 62.1777 30.8047C62.1777 31.6615 62.0091 32.4271 61.6719 33.1016C61.3346 33.776 60.8516 34.3503 60.2227 34.8242C59.5938 35.2982 58.8372 35.6582 57.9531 35.9043C57.0781 36.1504 56.0983 36.2734 55.0137 36.2734C54.0475 36.2734 53.0905 36.1458 52.1426 35.8906C51.2038 35.6263 50.3516 35.2344 49.5859 34.7148C48.8203 34.1862 48.2096 33.5208 47.7539 32.7188C47.2982 31.9076 47.0703 30.9596 47.0703 29.875H50.8438C50.8438 30.5039 50.944 31.0417 51.1445 31.4883C51.3542 31.9258 51.6458 32.2858 52.0195 32.5684C52.4023 32.8418 52.849 33.0423 53.3594 33.1699C53.8698 33.2975 54.4212 33.3613 55.0137 33.3613C55.7793 33.3613 56.4082 33.2565 56.9004 33.0469C57.4017 32.8281 57.7754 32.5273 58.0215 32.1445C58.2767 31.7617 58.4043 31.3242 58.4043 30.832ZM68.8359 16.0938V36H65.0762V16.0938H68.8359ZM80.7852 16.0938L72.8008 25.8008L68.2344 30.6816L67.5645 27.0312L70.7363 22.916L76.1777 16.0938H80.7852ZM76.6016 36L70.4082 26.6758L73.1016 24.2422L81.0723 36H76.6016ZM97.4512 28.7402H92.3242V25.7871H97.4512C98.2897 25.7871 98.9688 25.6504 99.4883 25.377C100.017 25.0944 100.404 24.7116 100.65 24.2285C100.896 23.7363 101.02 23.1758 101.02 22.5469C101.02 21.9362 100.896 21.3665 100.65 20.8379C100.404 20.3092 100.017 19.8809 99.4883 19.5527C98.9688 19.2246 98.2897 19.0605 97.4512 19.0605H93.5547V36H89.7949V16.0938H97.4512C99.0007 16.0938 100.322 16.3717 101.416 16.9277C102.519 17.4746 103.357 18.2357 103.932 19.2109C104.515 20.1771 104.807 21.2799 104.807 22.5195C104.807 23.8047 104.515 24.9121 103.932 25.8418C103.357 26.7715 102.519 27.487 101.416 27.9883C100.322 28.4896 99.0007 28.7402 97.4512 28.7402ZM120.953 33.0469V36H110.371V33.0469H120.953ZM111.52 16.0938V36H107.76V16.0938H111.52ZM119.572 24.3105V27.1953H110.371V24.3105H119.572ZM120.912 16.0938V19.0605H110.371V16.0938H120.912ZM139.561 16.0938V36H135.787L127.324 22.1914V36H123.564V16.0938H127.324L135.814 29.916V16.0938H139.561ZM153.807 30.832C153.807 30.4492 153.747 30.1074 153.629 29.8066C153.52 29.4967 153.314 29.2188 153.014 28.9727C152.722 28.7174 152.307 28.4714 151.77 28.2344C151.241 27.9883 150.557 27.7331 149.719 27.4688C148.789 27.1771 147.923 26.849 147.121 26.4844C146.319 26.1198 145.613 25.696 145.002 25.2129C144.4 24.7298 143.931 24.1738 143.594 23.5449C143.257 22.9069 143.088 22.1686 143.088 21.3301C143.088 20.5098 143.261 19.7624 143.607 19.0879C143.963 18.4134 144.464 17.8346 145.111 17.3516C145.758 16.8594 146.52 16.4811 147.395 16.2168C148.279 15.9525 149.254 15.8203 150.32 15.8203C151.797 15.8203 153.073 16.0892 154.148 16.627C155.233 17.1647 156.072 17.8939 156.664 18.8145C157.257 19.735 157.553 20.7695 157.553 21.918H153.807C153.807 21.2982 153.674 20.7513 153.41 20.2773C153.155 19.8034 152.763 19.4297 152.234 19.1562C151.715 18.8828 151.059 18.7461 150.266 18.7461C149.5 18.7461 148.862 18.86 148.352 19.0879C147.85 19.3158 147.472 19.6257 147.217 20.0176C146.971 20.4095 146.848 20.847 146.848 21.3301C146.848 21.6947 146.934 22.0228 147.107 22.3145C147.281 22.597 147.54 22.8659 147.887 23.1211C148.233 23.3672 148.661 23.5996 149.172 23.8184C149.691 24.028 150.293 24.2376 150.977 24.4473C152.07 24.7754 153.027 25.14 153.848 25.541C154.677 25.9421 155.365 26.3978 155.912 26.9082C156.468 27.4186 156.883 27.9928 157.156 28.6309C157.439 29.2689 157.58 29.9935 157.58 30.8047C157.58 31.6615 157.411 32.4271 157.074 33.1016C156.737 33.776 156.254 34.3503 155.625 34.8242C154.996 35.2982 154.24 35.6582 153.355 35.9043C152.48 36.1504 151.501 36.2734 150.416 36.2734C149.45 36.2734 148.493 36.1458 147.545 35.8906C146.606 35.6263 145.754 35.2344 144.988 34.7148C144.223 34.1862 143.612 33.5208 143.156 32.7188C142.701 31.9076 142.473 30.9596 142.473 29.875H146.246C146.246 30.5039 146.346 31.0417 146.547 31.4883C146.757 31.9258 147.048 32.2858 147.422 32.5684C147.805 32.8418 148.251 33.0423 148.762 33.1699C149.272 33.2975 149.824 33.3613 150.416 33.3613C151.182 33.3613 151.811 33.2565 152.303 33.0469C152.804 32.8281 153.178 32.5273 153.424 32.1445C153.679 31.7617 153.807 31.3242 153.807 30.832Z" fill="black"/>
</svg>
